<svg width="49" height="61" viewBox="0 0 49 61" fill="none" xmlns="http://www.w3.org/2000/svg">
<path d="M45.9873 15.5765C47.1402 14.4234 47.7746 12.8921 47.7746 11.2631C47.7746 9.63415 47.1402 8.10279 45.9873 6.9497L41.15 2.1116C39.9971 0.95851 38.466 0.324005 36.8373 0.324005C35.2086 0.324005 33.6775 0.95851 32.5276 2.10855L0.687905 33.8547C0.311558 34.23 0.100037 34.7396 0.100037 35.271V46.9088C0.100037 47.4611 0.547752 47.9088 1.10004 47.9088H12.733C13.2624 47.9088 13.7702 47.6989 14.1451 47.3251L45.9873 15.5765ZM36.8373 6.42501L41.6776 11.2601L36.8281 16.0921L31.9908 11.257L36.8373 6.42501ZM7.20004 41.8078C6.64775 41.8078 6.20004 41.3601 6.20004 40.8078V36.9728L27.672 15.5643L32.5093 20.4024L11.0404 41.8078H7.20004ZM0.100037 56.0098C0.100037 54.9053 0.995467 54.0098 2.10004 54.0098H46.9C48.0046 54.0098 48.9 54.9053 48.9 56.0098V58.1108C48.9 59.2154 48.0046 60.1108 46.9 60.1108H2.10003C0.995464 60.1108 0.100037 59.2154 0.100037 58.1108V56.0098Z" fill="#D8D7CE"/>
</svg>
