<svg width="51" height="48" viewBox="0 0 51 48" fill="none" xmlns="http://www.w3.org/2000/svg">
<path d="M6.1 6.39976C6.1 5.2952 5.20457 4.39976 4.1 4.39976H2C0.895428 4.39976 0 5.29519 0 6.39976V40.9998C0 44.3639 2.73585 47.0998 6.1 47.0998H40.7C41.8046 47.0998 42.7 46.2043 42.7 45.0998V42.9998C42.7 41.8952 41.8046 40.9998 40.7 40.9998H6.1V6.39976ZM34.0466 14.2911C33.6702 14.743 32.987 14.7741 32.5712 14.3582L29.4956 11.2826C28.7145 10.5016 27.4482 10.5016 26.6671 11.2826L25.1829 12.7669C24.4018 13.5479 24.4018 14.8143 25.1829 15.5953L32.9802 23.3926C33.3959 23.8084 34.0789 23.7775 34.4554 23.3259L49.8647 4.8411C50.572 3.99264 50.4576 2.73145 49.6091 2.02419L47.9914 0.675738C47.1427 -0.0316775 45.8812 0.0830688 45.1741 0.931999L34.0466 14.2911Z" fill="#D8D7CE"/>
</svg>
