<svg width="49" height="56" viewBox="0 0 49 56" fill="none" xmlns="http://www.w3.org/2000/svg">
<path d="M45.8501 0.149994H9.2501C6.82337 0.149994 4.49603 1.11401 2.78007 2.82997C1.06411 4.54593 0.100098 6.87326 0.100098 9.29999V45.9C0.100098 48.3267 1.06411 50.6541 2.78007 52.37C4.49603 54.086 6.82337 55.05 9.2501 55.05H45.8501C46.659 55.05 47.4348 54.7287 48.0068 54.1567C48.5788 53.5847 48.9001 52.8089 48.9001 52V3.19999C48.9001 2.39108 48.5788 1.6153 48.0068 1.04332C47.4348 0.471332 46.659 0.149994 45.8501 0.149994ZM9.2501 6.24999H42.8001V36.75H9.2501C8.20961 36.7582 7.17815 36.9439 6.2001 37.299V9.29999C6.2001 8.49108 6.52143 7.71531 7.09342 7.14332C7.66541 6.57133 8.44118 6.24999 9.2501 6.24999ZM9.2501 48.95C8.44118 48.95 7.66541 48.6287 7.09342 48.0567C6.52143 47.4847 6.2001 46.7089 6.2001 45.9C6.2001 45.0911 6.52143 44.3153 7.09342 43.7433C7.66541 43.1713 8.44118 42.85 9.2501 42.85H42.8001V48.95H9.2501Z" fill="#D8D7CE"/>
</svg>
