<svg width="25" height="46" viewBox="0 0 25 46" fill="none" xmlns="http://www.w3.org/2000/svg">
<path d="M12.5 45.85L15.55 39.75V24.0669C20.7991 22.7036 24.7 17.9669 24.7 12.3C24.7 5.57171 19.2283 0.100006 12.5 0.100006C5.77175 0.100006 0.300049 5.57171 0.300049 12.3C0.300049 17.9669 4.201 22.7036 9.45005 24.0669V39.75L12.5 45.85ZM6.40005 12.3C6.40005 8.93586 9.1359 6.20001 12.5 6.20001C15.8642 6.20001 18.6 8.93586 18.6 12.3C18.6 15.6642 15.8642 18.4 12.5 18.4C9.1359 18.4 6.40005 15.6642 6.40005 12.3Z" fill="#D8D7CE"/>
</svg>
