<svg width="61" height="36" viewBox="0 0 61 36" fill="none" xmlns="http://www.w3.org/2000/svg">
<path d="M45.429 0.795373C44.3798 0.450456 43.2758 1.08005 42.9815 2.14458L42.4217 4.16967C42.1273 5.23438 42.7558 6.33018 43.8024 6.68361C50.6062 8.98127 54.9 12.8407 54.9 16.8C54.9 22.5706 44.8807 29 30.5 29C16.1192 29 6.1 22.5706 6.1 16.8C6.1 12.8404 10.3943 8.98077 17.2012 6.68082C18.2476 6.32728 18.8758 5.23164 18.5815 4.16712L18.0216 2.1419C17.7273 1.07723 16.6231 0.44764 15.5737 0.792762C5.91359 3.97003 0 9.98935 0 16.8C0 27.0602 13.3986 35.1 30.5 35.1C47.6013 35.1 61 27.0602 61 16.8C61 9.98941 55.0865 3.97013 45.429 0.795373Z" fill="#D8D7CE"/>
</svg>
