<svg width="1136" height="80" viewBox="0 0 1136 80" fill="none" xmlns="http://www.w3.org/2000/svg">
<path d="M98.87 46.64H101.95V36.87C101.95 36.5767 101.96 36.28 101.98 35.98L99.42 38.17C99.3533 38.2233 99.2867 38.2633 99.22 38.29C99.1533 38.31 99.09 38.32 99.03 38.32C98.93 38.32 98.84 38.3 98.76 38.26C98.68 38.2133 98.62 38.16 98.58 38.1L98.02 37.33L102.28 33.64H103.73V46.64H106.55V48H98.87V46.64ZM115.612 33.51C116.218 33.51 116.785 33.6 117.312 33.78C117.838 33.96 118.292 34.2233 118.672 34.57C119.058 34.91 119.362 35.3267 119.582 35.82C119.802 36.3133 119.912 36.8733 119.912 37.5C119.912 38.0333 119.832 38.5267 119.672 38.98C119.512 39.4333 119.295 39.87 119.022 40.29C118.748 40.7033 118.432 41.1067 118.072 41.5C117.718 41.8867 117.342 42.2833 116.942 42.69L113.172 46.55C113.438 46.4767 113.708 46.42 113.982 46.38C114.255 46.3333 114.518 46.31 114.772 46.31H119.572C119.765 46.31 119.918 46.3667 120.032 46.48C120.145 46.5933 120.202 46.74 120.202 46.92V48H110.642V47.39C110.642 47.2633 110.665 47.1333 110.712 47C110.765 46.8667 110.848 46.7433 110.962 46.63L115.552 42.02C115.932 41.6333 116.278 41.2633 116.592 40.91C116.905 40.55 117.172 40.19 117.392 39.83C117.618 39.47 117.792 39.1067 117.912 38.74C118.032 38.3667 118.092 37.97 118.092 37.55C118.092 37.13 118.025 36.7633 117.892 36.45C117.758 36.13 117.575 35.8667 117.342 35.66C117.108 35.4533 116.835 35.3 116.522 35.2C116.208 35.0933 115.872 35.04 115.512 35.04C115.152 35.04 114.818 35.0933 114.512 35.2C114.205 35.3067 113.932 35.4567 113.692 35.65C113.458 35.8367 113.258 36.06 113.092 36.32C112.932 36.58 112.818 36.8667 112.752 37.18C112.698 37.3733 112.618 37.5133 112.512 37.6C112.405 37.6867 112.265 37.73 112.092 37.73C112.058 37.73 112.022 37.73 111.982 37.73C111.948 37.7233 111.908 37.7167 111.862 37.71L110.932 37.55C111.025 36.8967 111.205 36.32 111.472 35.82C111.738 35.3133 112.075 34.89 112.482 34.55C112.895 34.21 113.365 33.9533 113.892 33.78C114.425 33.6 114.998 33.51 115.612 33.51ZM137.86 42.82C137.954 42.98 138.034 43.15 138.1 43.33C138.174 43.5033 138.244 43.68 138.31 43.86C138.377 43.6733 138.447 43.4967 138.52 43.33C138.594 43.1567 138.677 42.9833 138.77 42.81L143.62 34C143.707 33.8467 143.797 33.7533 143.89 33.72C143.984 33.6867 144.117 33.67 144.29 33.67H145.72V48H144.02V37.47C144.02 37.33 144.024 37.18 144.03 37.02C144.037 36.86 144.047 36.6967 144.06 36.53L139.15 45.49C138.984 45.79 138.75 45.94 138.45 45.94H138.17C137.87 45.94 137.637 45.79 137.47 45.49L132.45 36.5C132.47 36.6733 132.484 36.8433 132.49 37.01C132.504 37.1767 132.51 37.33 132.51 37.47V48H130.81V33.67H132.24C132.414 33.67 132.547 33.6867 132.64 33.72C132.734 33.7533 132.824 33.8467 132.91 34L137.86 42.82ZM164.519 40.84C164.519 41.9133 164.349 42.9 164.009 43.8C163.669 44.6933 163.189 45.4633 162.569 46.11C161.949 46.7567 161.202 47.26 160.329 47.62C159.462 47.9733 158.502 48.15 157.449 48.15C156.395 48.15 155.435 47.9733 154.569 47.62C153.702 47.26 152.959 46.7567 152.339 46.11C151.719 45.4633 151.239 44.6933 150.899 43.8C150.559 42.9 150.389 41.9133 150.389 40.84C150.389 39.7667 150.559 38.7833 150.899 37.89C151.239 36.99 151.719 36.2167 152.339 35.57C152.959 34.9167 153.702 34.41 154.569 34.05C155.435 33.69 156.395 33.51 157.449 33.51C158.502 33.51 159.462 33.69 160.329 34.05C161.202 34.41 161.949 34.9167 162.569 35.57C163.189 36.2167 163.669 36.99 164.009 37.89C164.349 38.7833 164.519 39.7667 164.519 40.84ZM162.529 40.84C162.529 39.96 162.409 39.17 162.169 38.47C161.929 37.77 161.589 37.18 161.149 36.7C160.709 36.2133 160.175 35.84 159.549 35.58C158.922 35.32 158.222 35.19 157.449 35.19C156.682 35.19 155.985 35.32 155.359 35.58C154.732 35.84 154.195 36.2133 153.749 36.7C153.309 37.18 152.969 37.77 152.729 38.47C152.489 39.17 152.369 39.96 152.369 40.84C152.369 41.72 152.489 42.51 152.729 43.21C152.969 43.9033 153.309 44.4933 153.749 44.98C154.195 45.46 154.732 45.83 155.359 46.09C155.985 46.3433 156.682 46.47 157.449 46.47C158.222 46.47 158.922 46.3433 159.549 46.09C160.175 45.83 160.709 45.46 161.149 44.98C161.589 44.4933 161.929 43.9033 162.169 43.21C162.409 42.51 162.529 41.72 162.529 40.84ZM160.879 30.18L157.939 32.34C157.825 32.42 157.725 32.4733 157.639 32.5C157.552 32.5267 157.439 32.54 157.299 32.54H155.919L158.029 30.51C158.095 30.4433 158.155 30.39 158.209 30.35C158.269 30.31 158.329 30.2767 158.389 30.25C158.449 30.2233 158.515 30.2067 158.589 30.2C158.662 30.1867 158.755 30.18 158.869 30.18H160.879ZM181.586 40.84C181.586 41.9133 181.416 42.89 181.076 43.77C180.736 44.65 180.256 45.4033 179.636 46.03C179.016 46.6567 178.272 47.1433 177.406 47.49C176.539 47.83 175.579 48 174.526 48H169.166V33.67H174.526C175.579 33.67 176.539 33.8433 177.406 34.19C178.272 34.53 179.016 35.0167 179.636 35.65C180.256 36.2767 180.736 37.03 181.076 37.91C181.416 38.79 181.586 39.7667 181.586 40.84ZM179.596 40.84C179.596 39.96 179.476 39.1733 179.236 38.48C178.996 37.7867 178.656 37.2 178.216 36.72C177.776 36.24 177.242 35.8733 176.616 35.62C175.989 35.3667 175.292 35.24 174.526 35.24H171.116V46.43H174.526C175.292 46.43 175.989 46.3033 176.616 46.05C177.242 45.7967 177.776 45.4333 178.216 44.96C178.656 44.48 178.996 43.8933 179.236 43.2C179.476 42.5067 179.596 41.72 179.596 40.84ZM191.794 46.46C192.388 46.46 192.918 46.36 193.384 46.16C193.851 45.96 194.244 45.68 194.564 45.32C194.891 44.96 195.138 44.53 195.304 44.03C195.478 43.53 195.564 42.98 195.564 42.38V33.67H197.494V42.38C197.494 43.2067 197.361 43.9733 197.094 44.68C196.834 45.3867 196.458 46 195.964 46.52C195.478 47.0333 194.881 47.4367 194.174 47.73C193.468 48.0233 192.674 48.17 191.794 48.17C190.914 48.17 190.121 48.0233 189.414 47.73C188.708 47.4367 188.108 47.0333 187.614 46.52C187.121 46 186.741 45.3867 186.474 44.68C186.214 43.9733 186.084 43.2067 186.084 42.38V33.67H188.014V42.37C188.014 42.97 188.098 43.52 188.264 44.02C188.438 44.52 188.684 44.95 189.004 45.31C189.331 45.67 189.728 45.9533 190.194 46.16C190.668 46.36 191.201 46.46 191.794 46.46ZM204.774 46.37H210.974V48H202.834V33.67H204.774V46.37ZM227.616 40.84C227.616 41.9133 227.446 42.9 227.106 43.8C226.766 44.6933 226.286 45.4633 225.666 46.11C225.046 46.7567 224.3 47.26 223.426 47.62C222.56 47.9733 221.6 48.15 220.546 48.15C219.493 48.15 218.533 47.9733 217.666 47.62C216.8 47.26 216.056 46.7567 215.436 46.11C214.816 45.4633 214.336 44.6933 213.996 43.8C213.656 42.9 213.486 41.9133 213.486 40.84C213.486 39.7667 213.656 38.7833 213.996 37.89C214.336 36.99 214.816 36.2167 215.436 35.57C216.056 34.9167 216.8 34.41 217.666 34.05C218.533 33.69 219.493 33.51 220.546 33.51C221.6 33.51 222.56 33.69 223.426 34.05C224.3 34.41 225.046 34.9167 225.666 35.57C226.286 36.2167 226.766 36.99 227.106 37.89C227.446 38.7833 227.616 39.7667 227.616 40.84ZM225.626 40.84C225.626 39.96 225.506 39.17 225.266 38.47C225.026 37.77 224.686 37.18 224.246 36.7C223.806 36.2133 223.273 35.84 222.646 35.58C222.02 35.32 221.32 35.19 220.546 35.19C219.78 35.19 219.083 35.32 218.456 35.58C217.83 35.84 217.293 36.2133 216.846 36.7C216.406 37.18 216.066 37.77 215.826 38.47C215.586 39.17 215.466 39.96 215.466 40.84C215.466 41.72 215.586 42.51 215.826 43.21C216.066 43.9033 216.406 44.4933 216.846 44.98C217.293 45.46 217.83 45.83 218.456 46.09C219.083 46.3433 219.78 46.47 220.546 46.47C221.32 46.47 222.02 46.3433 222.646 46.09C223.273 45.83 223.806 45.46 224.246 44.98C224.686 44.4933 225.026 43.9033 225.266 43.21C225.506 42.51 225.626 41.72 225.626 40.84ZM239.603 35.91C239.543 36.01 239.48 36.0867 239.413 36.14C239.347 36.1867 239.26 36.21 239.153 36.21C239.04 36.21 238.907 36.1533 238.753 36.04C238.607 35.9267 238.417 35.8033 238.183 35.67C237.957 35.53 237.68 35.4033 237.353 35.29C237.033 35.1767 236.643 35.12 236.183 35.12C235.75 35.12 235.367 35.18 235.033 35.3C234.7 35.4133 234.42 35.57 234.193 35.77C233.973 35.97 233.807 36.2067 233.693 36.48C233.58 36.7467 233.523 37.0367 233.523 37.35C233.523 37.75 233.62 38.0833 233.813 38.35C234.013 38.61 234.273 38.8333 234.593 39.02C234.92 39.2067 235.287 39.37 235.693 39.51C236.107 39.6433 236.527 39.7833 236.953 39.93C237.387 40.0767 237.807 40.2433 238.213 40.43C238.627 40.61 238.993 40.84 239.313 41.12C239.64 41.4 239.9 41.7433 240.093 42.15C240.293 42.5567 240.393 43.0567 240.393 43.65C240.393 44.2767 240.287 44.8667 240.073 45.42C239.86 45.9667 239.547 46.4433 239.133 46.85C238.727 47.2567 238.223 47.5767 237.623 47.81C237.03 48.0433 236.353 48.16 235.593 48.16C234.667 48.16 233.82 47.9933 233.053 47.66C232.293 47.32 231.643 46.8633 231.103 46.29L231.663 45.37C231.717 45.2967 231.78 45.2367 231.853 45.19C231.933 45.1367 232.02 45.11 232.113 45.11C232.253 45.11 232.413 45.1867 232.593 45.34C232.773 45.4867 232.997 45.65 233.263 45.83C233.537 46.01 233.863 46.1767 234.243 46.33C234.63 46.4767 235.1 46.55 235.653 46.55C236.113 46.55 236.523 46.4867 236.883 46.36C237.243 46.2333 237.547 46.0567 237.793 45.83C238.047 45.5967 238.24 45.32 238.373 45C238.507 44.68 238.573 44.3233 238.573 43.93C238.573 43.4967 238.473 43.1433 238.273 42.87C238.08 42.59 237.823 42.3567 237.503 42.17C237.183 41.9833 236.817 41.8267 236.403 41.7C235.997 41.5667 235.577 41.4333 235.143 41.3C234.717 41.16 234.297 41 233.883 40.82C233.477 40.64 233.113 40.4067 232.793 40.12C232.473 39.8333 232.213 39.4767 232.013 39.05C231.82 38.6167 231.723 38.0833 231.723 37.45C231.723 36.9433 231.82 36.4533 232.013 35.98C232.213 35.5067 232.5 35.0867 232.873 34.72C233.247 34.3533 233.707 34.06 234.253 33.84C234.807 33.62 235.44 33.51 236.153 33.51C236.953 33.51 237.683 33.6367 238.343 33.89C239.003 34.1433 239.58 34.51 240.073 34.99L239.603 35.91Z" fill="white"/>
<circle cx="40" cy="40" r="38" stroke="#D8D7CE" stroke-width="4"/>
<g clip-path="url(#clip0_1_750)">
<path d="M54.3667 27.0334C54.1731 26.8768 53.9468 26.7655 53.7045 26.7078C53.4622 26.6502 53.2101 26.6475 52.9667 26.7001L40 29.6167L27.0333 26.6667C26.7861 26.6109 26.5293 26.6122 26.2826 26.6705C26.0359 26.7289 25.8057 26.8428 25.6096 27.0035C25.4136 27.1642 25.2567 27.3675 25.1511 27.598C25.0455 27.8284 24.9938 28.08 25 28.3334V48.6667C24.9906 49.052 25.115 49.4286 25.352 49.7325C25.589 50.0364 25.924 50.2487 26.3 50.3334L39.6333 53.3334H40.3667L53.7 50.3334C54.076 50.2487 54.411 50.0364 54.648 49.7325C54.885 49.4286 55.0094 49.052 55 48.6667V28.3334C54.9989 28.0831 54.9413 27.8362 54.8317 27.6111C54.722 27.3861 54.5631 27.1886 54.3667 27.0334ZM28.3333 30.4167L38.3333 32.6667V49.5834L28.3333 47.3334V30.4167ZM51.6667 47.3334L41.6667 49.5834V32.6667L51.6667 30.4167V47.3334Z" fill="#D8D7CE"/>
</g>
<path d="M488.51 36.34V40.61H492.58V41.96H488.51V46.26H487.05V41.96H483V40.61H487.05V36.34H488.51ZM501.802 33.51C502.408 33.51 502.968 33.5967 503.482 33.77C503.995 33.9433 504.435 34.19 504.802 34.51C505.175 34.83 505.465 35.2167 505.672 35.67C505.878 36.1233 505.982 36.6267 505.982 37.18C505.982 37.6333 505.922 38.04 505.802 38.4C505.688 38.7533 505.522 39.0667 505.302 39.34C505.088 39.6067 504.828 39.8333 504.522 40.02C504.215 40.2067 503.872 40.3567 503.492 40.47C504.425 40.7167 505.125 41.13 505.592 41.71C506.065 42.29 506.302 43.0167 506.302 43.89C506.302 44.55 506.175 45.1433 505.922 45.67C505.675 46.1967 505.335 46.6467 504.902 47.02C504.468 47.3867 503.962 47.67 503.382 47.87C502.808 48.0633 502.192 48.16 501.532 48.16C500.772 48.16 500.122 48.0667 499.582 47.88C499.042 47.6867 498.585 47.4233 498.212 47.09C497.838 46.7567 497.532 46.3633 497.292 45.91C497.052 45.45 496.848 44.9533 496.682 44.42L497.442 44.1C497.582 44.04 497.722 44.01 497.862 44.01C497.995 44.01 498.112 44.04 498.212 44.1C498.318 44.1533 498.398 44.24 498.452 44.36C498.465 44.3867 498.478 44.4167 498.492 44.45C498.505 44.4767 498.518 44.5067 498.532 44.54C498.625 44.7333 498.738 44.9533 498.872 45.2C499.005 45.44 499.185 45.6667 499.412 45.88C499.638 46.0933 499.918 46.2733 500.252 46.42C500.592 46.5667 501.012 46.64 501.512 46.64C502.012 46.64 502.448 46.56 502.822 46.4C503.202 46.2333 503.515 46.02 503.762 45.76C504.015 45.5 504.205 45.21 504.332 44.89C504.458 44.57 504.522 44.2533 504.522 43.94C504.522 43.5533 504.468 43.2 504.362 42.88C504.262 42.56 504.075 42.2833 503.802 42.05C503.535 41.8167 503.162 41.6333 502.682 41.5C502.208 41.3667 501.598 41.3 500.852 41.3V40.01C501.458 40.0033 501.975 39.9367 502.402 39.81C502.835 39.6833 503.188 39.51 503.462 39.29C503.735 39.07 503.932 38.8067 504.052 38.5C504.178 38.1933 504.242 37.8533 504.242 37.48C504.242 37.0667 504.175 36.7067 504.042 36.4C503.915 36.0933 503.738 35.84 503.512 35.64C503.285 35.44 503.015 35.29 502.702 35.19C502.395 35.09 502.062 35.04 501.702 35.04C501.342 35.04 501.008 35.0933 500.702 35.2C500.395 35.3067 500.122 35.4567 499.882 35.65C499.648 35.8367 499.452 36.0633 499.292 36.33C499.132 36.59 499.012 36.8733 498.932 37.18C498.878 37.3733 498.798 37.5133 498.692 37.6C498.585 37.6867 498.448 37.73 498.282 37.73C498.248 37.73 498.212 37.73 498.172 37.73C498.138 37.7233 498.098 37.7167 498.052 37.71L497.122 37.55C497.215 36.8967 497.395 36.32 497.662 35.82C497.928 35.3133 498.265 34.89 498.672 34.55C499.085 34.21 499.555 33.9533 500.082 33.78C500.615 33.6 501.188 33.51 501.802 33.51ZM510.143 46.77C510.143 46.6167 510.17 46.4733 510.223 46.34C510.283 46.2 510.363 46.08 510.463 45.98C510.57 45.8733 510.696 45.79 510.843 45.73C510.99 45.67 511.15 45.64 511.323 45.64C511.523 45.64 511.7 45.6767 511.853 45.75C512.013 45.8233 512.143 45.9267 512.243 46.06C512.35 46.1867 512.43 46.3367 512.483 46.51C512.536 46.6767 512.563 46.86 512.563 47.06C512.563 47.36 512.52 47.6733 512.433 48C512.346 48.32 512.223 48.6367 512.063 48.95C511.903 49.27 511.703 49.58 511.463 49.88C511.23 50.18 510.963 50.4567 510.663 50.71L510.363 50.42C510.276 50.34 510.233 50.2467 510.233 50.14C510.233 50.0533 510.28 49.9633 510.373 49.87C510.44 49.7967 510.523 49.6967 510.623 49.57C510.73 49.45 510.836 49.31 510.943 49.15C511.05 48.99 511.146 48.8133 511.233 48.62C511.326 48.4267 511.393 48.22 511.433 48H511.303C511.13 48 510.973 47.97 510.833 47.91C510.693 47.85 510.57 47.7667 510.463 47.66C510.363 47.5467 510.283 47.4167 510.223 47.27C510.17 47.1167 510.143 46.95 510.143 46.77ZM525.221 34.45C525.221 34.7033 525.141 34.9133 524.981 35.08C524.821 35.24 524.551 35.32 524.171 35.32H519.671L519.011 39.08C519.758 38.92 520.448 38.84 521.081 38.84C521.828 38.84 522.485 38.95 523.051 39.17C523.625 39.39 524.105 39.6933 524.491 40.08C524.878 40.4667 525.168 40.9233 525.361 41.45C525.561 41.9767 525.661 42.55 525.661 43.17C525.661 43.93 525.528 44.6167 525.261 45.23C524.995 45.8433 524.628 46.37 524.161 46.81C523.701 47.2433 523.158 47.5767 522.531 47.81C521.905 48.0433 521.228 48.16 520.501 48.16C520.081 48.16 519.678 48.1167 519.291 48.03C518.905 47.95 518.545 47.84 518.211 47.7C517.878 47.56 517.568 47.4 517.281 47.22C516.995 47.04 516.741 46.85 516.521 46.65L517.061 45.89C517.181 45.7167 517.341 45.63 517.541 45.63C517.668 45.63 517.815 45.6833 517.981 45.79C518.155 45.89 518.361 46.0033 518.601 46.13C518.841 46.2567 519.121 46.3733 519.441 46.48C519.768 46.58 520.155 46.63 520.601 46.63C521.101 46.63 521.551 46.55 521.951 46.39C522.351 46.23 522.691 46.0033 522.971 45.71C523.258 45.41 523.478 45.0533 523.631 44.64C523.785 44.2267 523.861 43.7633 523.861 43.25C523.861 42.8033 523.795 42.4 523.661 42.04C523.535 41.68 523.338 41.3733 523.071 41.12C522.811 40.8667 522.485 40.67 522.091 40.53C521.698 40.39 521.238 40.32 520.711 40.32C520.351 40.32 519.978 40.35 519.591 40.41C519.205 40.47 518.805 40.5667 518.391 40.7L517.271 40.37L518.431 33.67H525.221V34.45ZM548.27 48H546.32V41.48H538.6V48H536.65V33.67H538.6V40.06H546.32V33.67H548.27V48ZM567.077 40.84C567.077 41.9133 566.907 42.9 566.567 43.8C566.227 44.6933 565.747 45.4633 565.127 46.11C564.507 46.7567 563.761 47.26 562.887 47.62C562.021 47.9733 561.061 48.15 560.007 48.15C558.954 48.15 557.994 47.9733 557.127 47.62C556.261 47.26 555.517 46.7567 554.897 46.11C554.277 45.4633 553.797 44.6933 553.457 43.8C553.117 42.9 552.947 41.9133 552.947 40.84C552.947 39.7667 553.117 38.7833 553.457 37.89C553.797 36.99 554.277 36.2167 554.897 35.57C555.517 34.9167 556.261 34.41 557.127 34.05C557.994 33.69 558.954 33.51 560.007 33.51C561.061 33.51 562.021 33.69 562.887 34.05C563.761 34.41 564.507 34.9167 565.127 35.57C565.747 36.2167 566.227 36.99 566.567 37.89C566.907 38.7833 567.077 39.7667 567.077 40.84ZM565.087 40.84C565.087 39.96 564.967 39.17 564.727 38.47C564.487 37.77 564.147 37.18 563.707 36.7C563.267 36.2133 562.734 35.84 562.107 35.58C561.481 35.32 560.781 35.19 560.007 35.19C559.241 35.19 558.544 35.32 557.917 35.58C557.291 35.84 556.754 36.2133 556.307 36.7C555.867 37.18 555.527 37.77 555.287 38.47C555.047 39.17 554.927 39.96 554.927 40.84C554.927 41.72 555.047 42.51 555.287 43.21C555.527 43.9033 555.867 44.4933 556.307 44.98C556.754 45.46 557.291 45.83 557.917 46.09C558.544 46.3433 559.241 46.47 560.007 46.47C560.781 46.47 561.481 46.3433 562.107 46.09C562.734 45.83 563.267 45.46 563.707 44.98C564.147 44.4933 564.487 43.9033 564.727 43.21C564.967 42.51 565.087 41.72 565.087 40.84ZM573.854 42.02V48H571.924V33.67H575.974C576.881 33.67 577.664 33.7633 578.324 33.95C578.984 34.13 579.528 34.3933 579.954 34.74C580.388 35.0867 580.708 35.5067 580.914 36C581.121 36.4867 581.224 37.0333 581.224 37.64C581.224 38.1467 581.144 38.62 580.984 39.06C580.824 39.5 580.591 39.8967 580.284 40.25C579.984 40.5967 579.614 40.8933 579.174 41.14C578.741 41.3867 578.248 41.5733 577.694 41.7C577.934 41.84 578.148 42.0433 578.334 42.31L582.514 48H580.794C580.441 48 580.181 47.8633 580.014 47.59L576.294 42.47C576.181 42.31 576.058 42.1967 575.924 42.13C575.791 42.0567 575.591 42.02 575.324 42.02H573.854ZM573.854 40.61H575.884C576.451 40.61 576.948 40.5433 577.374 40.41C577.808 40.27 578.168 40.0767 578.454 39.83C578.748 39.5767 578.968 39.2767 579.114 38.93C579.261 38.5833 579.334 38.2 579.334 37.78C579.334 36.9267 579.051 36.2833 578.484 35.85C577.924 35.4167 577.088 35.2 575.974 35.2H573.854V40.61ZM598.385 48H596.885C596.712 48 596.572 47.9567 596.465 47.87C596.359 47.7833 596.279 47.6733 596.225 47.54L594.885 44.08H588.455L587.115 47.54C587.069 47.66 586.989 47.7667 586.875 47.86C586.762 47.9533 586.622 48 586.455 48H584.955L590.685 33.67H592.655L598.385 48ZM588.995 42.68H594.345L592.095 36.85C591.949 36.49 591.805 36.04 591.665 35.5C591.592 35.7733 591.519 36.0267 591.445 36.26C591.379 36.4867 591.312 36.6867 591.245 36.86L588.995 42.68ZM609.529 35.91C609.469 36.01 609.406 36.0867 609.339 36.14C609.273 36.1867 609.186 36.21 609.079 36.21C608.966 36.21 608.833 36.1533 608.679 36.04C608.533 35.9267 608.343 35.8033 608.109 35.67C607.883 35.53 607.606 35.4033 607.279 35.29C606.959 35.1767 606.569 35.12 606.109 35.12C605.676 35.12 605.293 35.18 604.959 35.3C604.626 35.4133 604.346 35.57 604.119 35.77C603.899 35.97 603.733 36.2067 603.619 36.48C603.506 36.7467 603.449 37.0367 603.449 37.35C603.449 37.75 603.546 38.0833 603.739 38.35C603.939 38.61 604.199 38.8333 604.519 39.02C604.846 39.2067 605.213 39.37 605.619 39.51C606.033 39.6433 606.453 39.7833 606.879 39.93C607.313 40.0767 607.733 40.2433 608.139 40.43C608.553 40.61 608.919 40.84 609.239 41.12C609.566 41.4 609.826 41.7433 610.019 42.15C610.219 42.5567 610.319 43.0567 610.319 43.65C610.319 44.2767 610.213 44.8667 609.999 45.42C609.786 45.9667 609.473 46.4433 609.059 46.85C608.653 47.2567 608.149 47.5767 607.549 47.81C606.956 48.0433 606.279 48.16 605.519 48.16C604.593 48.16 603.746 47.9933 602.979 47.66C602.219 47.32 601.569 46.8633 601.029 46.29L601.589 45.37C601.643 45.2967 601.706 45.2367 601.779 45.19C601.859 45.1367 601.946 45.11 602.039 45.11C602.179 45.11 602.339 45.1867 602.519 45.34C602.699 45.4867 602.923 45.65 603.189 45.83C603.463 46.01 603.789 46.1767 604.169 46.33C604.556 46.4767 605.026 46.55 605.579 46.55C606.039 46.55 606.449 46.4867 606.809 46.36C607.169 46.2333 607.473 46.0567 607.719 45.83C607.973 45.5967 608.166 45.32 608.299 45C608.433 44.68 608.499 44.3233 608.499 43.93C608.499 43.4967 608.399 43.1433 608.199 42.87C608.006 42.59 607.749 42.3567 607.429 42.17C607.109 41.9833 606.743 41.8267 606.329 41.7C605.923 41.5667 605.503 41.4333 605.069 41.3C604.643 41.16 604.223 41 603.809 40.82C603.403 40.64 603.039 40.4067 602.719 40.12C602.399 39.8333 602.139 39.4767 601.939 39.05C601.746 38.6167 601.649 38.0833 601.649 37.45C601.649 36.9433 601.746 36.4533 601.939 35.98C602.139 35.5067 602.426 35.0867 602.799 34.72C603.173 34.3533 603.633 34.06 604.179 33.84C604.733 33.62 605.366 33.51 606.079 33.51C606.879 33.51 607.609 33.6367 608.269 33.89C608.929 34.1433 609.506 34.51 609.999 34.99L609.529 35.91Z" fill="white"/>
<circle cx="426" cy="40" r="38" stroke="#D8D7CE" stroke-width="4"/>
<g clip-path="url(#clip1_1_750)">
<path d="M436.433 25H415.567C414.356 25 413.194 25.4811 412.338 26.3375C411.481 27.194 411 28.3555 411 29.5667V50.4333C411 51.6445 411.481 52.806 412.338 53.6625C413.194 54.5189 414.356 55 415.567 55H436.433C437.644 55 438.806 54.5189 439.662 53.6625C440.519 52.806 441 51.6445 441 50.4333V29.5667C441 28.3555 440.519 27.194 439.662 26.3375C438.806 25.4811 437.644 25 436.433 25V25ZM417.667 38.3333H414.333V35H417.667V38.3333ZM414.333 41.6667H417.667V45H414.333V41.6667ZM421 28.3333H431V51.6667H421V28.3333ZM437.667 38.3333H434.333V35H437.667V38.3333ZM434.333 41.6667H437.667V45H434.333V41.6667ZM437.667 29.5667V31.6667H434.333V28.3333H436.433C436.595 28.3333 436.756 28.3652 436.905 28.4272C437.055 28.4892 437.191 28.58 437.305 28.6946C437.42 28.8091 437.511 28.9451 437.573 29.0947C437.635 29.2443 437.667 29.4047 437.667 29.5667V29.5667ZM415.567 28.3333H417.667V31.6667H414.333V29.5667C414.333 29.4047 414.365 29.2443 414.427 29.0947C414.489 28.9451 414.58 28.8091 414.695 28.6946C414.809 28.58 414.945 28.4892 415.095 28.4272C415.244 28.3652 415.405 28.3333 415.567 28.3333ZM414.333 50.4333V48.3333H417.667V51.6667H415.567C415.405 51.6667 415.244 51.6348 415.095 51.5728C414.945 51.5108 414.809 51.42 414.695 51.3054C414.58 51.1909 414.489 51.0549 414.427 50.9053C414.365 50.7557 414.333 50.5953 414.333 50.4333V50.4333ZM437.667 50.4333C437.667 50.7604 437.537 51.0741 437.305 51.3054C437.074 51.5367 436.76 51.6667 436.433 51.6667H434.333V48.3333H437.667V50.4333Z" fill="#D8D7CE"/>
</g>
<rect x="768" y="16" width="368" height="48" rx="4" fill="#C5AF19"/>
<path d="M874.585 41.2C874.676 41.3707 874.759 41.5493 874.833 41.736C874.913 41.9173 874.991 42.1013 875.065 42.288C875.14 42.096 875.217 41.9067 875.297 41.72C875.377 41.5333 875.463 41.3547 875.553 41.184L878.977 34.776C879.02 34.696 879.063 34.632 879.105 34.584C879.153 34.536 879.204 34.5013 879.257 34.48C879.316 34.4587 879.38 34.4453 879.449 34.44C879.519 34.4347 879.601 34.432 879.697 34.432H881.321V46H879.425V38.528C879.425 38.3893 879.428 38.2373 879.433 38.072C879.444 37.9067 879.457 37.7387 879.473 37.568L875.977 44.128C875.897 44.2773 875.793 44.3947 875.665 44.48C875.537 44.56 875.388 44.6 875.217 44.6H874.921C874.751 44.6 874.601 44.56 874.473 44.48C874.345 44.3947 874.241 44.2773 874.161 44.128L870.617 37.544C870.639 37.72 870.652 37.8933 870.657 38.064C870.668 38.2293 870.673 38.384 870.673 38.528V46H868.777V34.432H870.401C870.497 34.432 870.58 34.4347 870.649 34.44C870.719 34.4453 870.78 34.4587 870.833 34.48C870.892 34.5013 870.945 34.536 870.993 34.584C871.041 34.632 871.087 34.696 871.129 34.776L874.585 41.2ZM894.82 46H893.156C892.97 46 892.815 45.9547 892.692 45.864C892.575 45.768 892.49 45.6507 892.436 45.512L891.572 43.152H886.78L885.916 45.512C885.874 45.6347 885.788 45.7467 885.66 45.848C885.538 45.9493 885.386 46 885.204 46H883.532L888.076 34.432H890.276L894.82 46ZM887.332 41.632H891.02L889.612 37.784C889.548 37.6133 889.476 37.4133 889.396 37.184C889.322 36.9493 889.247 36.696 889.172 36.424C889.098 36.696 889.023 36.9493 888.948 37.184C888.879 37.4187 888.81 37.624 888.74 37.8L887.332 41.632ZM903.212 36.536C903.153 36.6533 903.084 36.736 903.004 36.784C902.929 36.832 902.838 36.856 902.732 36.856C902.625 36.856 902.505 36.816 902.372 36.736C902.238 36.6507 902.081 36.5573 901.9 36.456C901.718 36.3547 901.505 36.264 901.26 36.184C901.02 36.0987 900.734 36.056 900.404 36.056C900.105 36.056 899.844 36.0933 899.62 36.168C899.401 36.2373 899.214 36.336 899.06 36.464C898.91 36.592 898.798 36.7467 898.724 36.928C898.649 37.104 898.612 37.2987 898.612 37.512C898.612 37.784 898.686 38.0107 898.836 38.192C898.99 38.3733 899.193 38.528 899.444 38.656C899.694 38.784 899.98 38.8987 900.3 39C900.62 39.1013 900.945 39.2107 901.276 39.328C901.612 39.44 901.94 39.5733 902.26 39.728C902.58 39.8773 902.865 40.0693 903.116 40.304C903.366 40.5333 903.566 40.816 903.716 41.152C903.87 41.488 903.948 41.896 903.948 42.376C903.948 42.8987 903.857 43.3893 903.676 43.848C903.5 44.3013 903.238 44.6987 902.892 45.04C902.55 45.376 902.132 45.6427 901.636 45.84C901.14 46.032 900.572 46.128 899.932 46.128C899.564 46.128 899.201 46.0907 898.844 46.016C898.486 45.9467 898.142 45.8453 897.812 45.712C897.486 45.5787 897.18 45.4187 896.892 45.232C896.609 45.0453 896.356 44.8373 896.132 44.608L896.756 43.576C896.814 43.5013 896.884 43.44 896.964 43.392C897.049 43.3387 897.142 43.312 897.244 43.312C897.377 43.312 897.521 43.368 897.676 43.48C897.83 43.5867 898.012 43.7067 898.22 43.84C898.433 43.9733 898.681 44.096 898.964 44.208C899.252 44.3147 899.596 44.368 899.996 44.368C900.609 44.368 901.084 44.224 901.42 43.936C901.756 43.6427 901.924 43.224 901.924 42.68C901.924 42.376 901.846 42.128 901.692 41.936C901.542 41.744 901.342 41.584 901.092 41.456C900.841 41.3227 900.556 41.2107 900.236 41.12C899.916 41.0293 899.59 40.9307 899.26 40.824C898.929 40.7173 898.604 40.5893 898.284 40.44C897.964 40.2907 897.678 40.096 897.428 39.856C897.177 39.616 896.974 39.3173 896.82 38.96C896.67 38.5973 896.596 38.152 896.596 37.624C896.596 37.2027 896.678 36.792 896.844 36.392C897.014 35.992 897.26 35.6373 897.58 35.328C897.905 35.0187 898.302 34.7707 898.772 34.584C899.241 34.3973 899.777 34.304 900.38 34.304C901.062 34.304 901.692 34.4107 902.268 34.624C902.844 34.8373 903.334 35.136 903.74 35.52L903.212 36.536ZM913.108 46H910.948V34.432H913.108V46ZM917.843 34.432C917.939 34.432 918.019 34.4373 918.083 34.448C918.147 34.4533 918.203 34.4693 918.251 34.496C918.304 34.5173 918.355 34.552 918.403 34.6C918.451 34.6427 918.504 34.7013 918.563 34.776L924.635 42.512C924.614 42.3253 924.598 42.144 924.587 41.968C924.582 41.7867 924.579 41.6187 924.579 41.464V34.432H926.475V46H925.363C925.192 46 925.051 45.9733 924.939 45.92C924.827 45.8667 924.718 45.7707 924.611 45.632L918.563 37.928C918.579 38.0987 918.59 38.2693 918.595 38.44C918.606 38.6053 918.611 38.7573 918.611 38.896V46H916.715V34.432H917.843ZM937.105 34.432V36.144H931.977V39.568H936.305V41.288H931.977V46H929.809V34.432H937.105ZM950.889 40.216C950.889 41.064 950.748 41.8507 950.465 42.576C950.182 43.296 949.785 43.92 949.273 44.448C948.761 44.976 948.145 45.3893 947.425 45.688C946.705 45.9813 945.908 46.128 945.033 46.128C944.158 46.128 943.358 45.9813 942.633 45.688C941.913 45.3893 941.294 44.976 940.777 44.448C940.265 43.92 939.868 43.296 939.585 42.576C939.302 41.8507 939.161 41.064 939.161 40.216C939.161 39.368 939.302 38.584 939.585 37.864C939.868 37.1387 940.265 36.512 940.777 35.984C941.294 35.456 941.913 35.0453 942.633 34.752C943.358 34.4533 944.158 34.304 945.033 34.304C945.908 34.304 946.705 34.4533 947.425 34.752C948.145 35.0507 948.761 35.464 949.273 35.992C949.785 36.5147 950.182 37.1387 950.465 37.864C950.748 38.584 950.889 39.368 950.889 40.216ZM948.681 40.216C948.681 39.5813 948.596 39.0133 948.425 38.512C948.26 38.0053 948.02 37.576 947.705 37.224C947.39 36.872 947.006 36.6027 946.553 36.416C946.105 36.2293 945.598 36.136 945.033 36.136C944.468 36.136 943.958 36.2293 943.505 36.416C943.052 36.6027 942.665 36.872 942.345 37.224C942.03 37.576 941.788 38.0053 941.617 38.512C941.446 39.0133 941.361 39.5813 941.361 40.216C941.361 40.8507 941.446 41.4213 941.617 41.928C941.788 42.4293 942.03 42.856 942.345 43.208C942.665 43.5547 943.052 43.8213 943.505 44.008C943.958 44.1947 944.468 44.288 945.033 44.288C945.598 44.288 946.105 44.1947 946.553 44.008C947.006 43.8213 947.39 43.5547 947.705 43.208C948.02 42.856 948.26 42.4293 948.425 41.928C948.596 41.4213 948.681 40.8507 948.681 40.216ZM955.814 41.48V46H953.662V34.432H957.19C957.979 34.432 958.654 34.5147 959.214 34.68C959.779 34.84 960.241 35.0667 960.598 35.36C960.961 35.6533 961.225 36.0053 961.39 36.416C961.561 36.8213 961.646 37.2693 961.646 37.76C961.646 38.1493 961.587 38.5173 961.47 38.864C961.358 39.2107 961.193 39.5253 960.974 39.808C960.761 40.0907 960.494 40.3387 960.174 40.552C959.859 40.7653 959.499 40.936 959.094 41.064C959.366 41.2187 959.601 41.44 959.798 41.728L962.694 46H960.758C960.571 46 960.411 45.9627 960.278 45.888C960.15 45.8133 960.041 45.7067 959.95 45.568L957.518 41.864C957.427 41.7253 957.326 41.6267 957.214 41.568C957.107 41.5093 956.947 41.48 956.734 41.48H955.814ZM955.814 39.936H957.158C957.563 39.936 957.915 39.8853 958.214 39.784C958.518 39.6827 958.766 39.544 958.958 39.368C959.155 39.1867 959.302 38.9733 959.398 38.728C959.494 38.4827 959.542 38.2133 959.542 37.92C959.542 37.3333 959.347 36.8827 958.958 36.568C958.574 36.2533 957.985 36.096 957.19 36.096H955.814V39.936ZM970.882 41.2C970.973 41.3707 971.056 41.5493 971.13 41.736C971.21 41.9173 971.288 42.1013 971.362 42.288C971.437 42.096 971.514 41.9067 971.594 41.72C971.674 41.5333 971.76 41.3547 971.85 41.184L975.274 34.776C975.317 34.696 975.36 34.632 975.402 34.584C975.45 34.536 975.501 34.5013 975.554 34.48C975.613 34.4587 975.677 34.4453 975.746 34.44C975.816 34.4347 975.898 34.432 975.994 34.432H977.618V46H975.722V38.528C975.722 38.3893 975.725 38.2373 975.73 38.072C975.741 37.9067 975.754 37.7387 975.77 37.568L972.274 44.128C972.194 44.2773 972.09 44.3947 971.962 44.48C971.834 44.56 971.685 44.6 971.514 44.6H971.218C971.048 44.6 970.898 44.56 970.77 44.48C970.642 44.3947 970.538 44.2773 970.458 44.128L966.914 37.544C966.936 37.72 966.949 37.8933 966.954 38.064C966.965 38.2293 966.97 38.384 966.97 38.528V46H965.074V34.432H966.698C966.794 34.432 966.877 34.4347 966.946 34.44C967.016 34.4453 967.077 34.4587 967.13 34.48C967.189 34.5013 967.242 34.536 967.29 34.584C967.338 34.632 967.384 34.696 967.426 34.776L970.882 41.2ZM991.117 46H989.453C989.267 46 989.112 45.9547 988.989 45.864C988.872 45.768 988.787 45.6507 988.733 45.512L987.869 43.152H983.077L982.213 45.512C982.171 45.6347 982.085 45.7467 981.957 45.848C981.835 45.9493 981.683 46 981.501 46H979.829L984.373 34.432H986.573L991.117 46ZM983.629 41.632H987.317L985.909 37.784C985.845 37.6133 985.773 37.4133 985.693 37.184C985.619 36.9493 985.544 36.696 985.469 36.424C985.395 36.696 985.32 36.9493 985.245 37.184C985.176 37.4187 985.107 37.624 985.037 37.8L983.629 41.632ZM1000.85 43.272C1000.97 43.272 1001.07 43.3173 1001.16 43.408L1002.01 44.328C1001.54 44.9093 1000.96 45.3547 1000.27 45.664C999.588 45.9733 998.766 46.128 997.806 46.128C996.948 46.128 996.174 45.9813 995.486 45.688C994.804 45.3947 994.22 44.9867 993.734 44.464C993.249 43.9413 992.876 43.3173 992.614 42.592C992.358 41.8667 992.23 41.0747 992.23 40.216C992.23 39.3467 992.374 38.552 992.662 37.832C992.95 37.1067 993.356 36.4827 993.878 35.96C994.401 35.4373 995.025 35.032 995.75 34.744C996.481 34.4507 997.286 34.304 998.166 34.304C999.025 34.304 999.774 34.4427 1000.41 34.72C1001.06 34.992 1001.61 35.3547 1002.07 35.808L1001.35 36.808C1001.31 36.872 1001.25 36.928 1001.18 36.976C1001.12 37.024 1001.03 37.048 1000.91 37.048C1000.79 37.048 1000.66 37 1000.53 36.904C1000.41 36.808 1000.24 36.704 1000.05 36.592C999.849 36.48 999.598 36.376 999.294 36.28C998.996 36.184 998.614 36.136 998.15 36.136C997.606 36.136 997.105 36.232 996.646 36.424C996.193 36.6107 995.801 36.88 995.47 37.232C995.145 37.584 994.889 38.0133 994.702 38.52C994.521 39.0213 994.43 39.5867 994.43 40.216C994.43 40.8667 994.521 41.4453 994.702 41.952C994.889 42.4587 995.14 42.8853 995.454 43.232C995.769 43.5787 996.14 43.8453 996.566 44.032C996.993 44.2133 997.452 44.304 997.942 44.304C998.236 44.304 998.5 44.288 998.734 44.256C998.974 44.224 999.193 44.1733 999.39 44.104C999.593 44.0347 999.782 43.9467 999.958 43.84C1000.14 43.728 1000.32 43.592 1000.49 43.432C1000.55 43.384 1000.6 43.3467 1000.66 43.32C1000.72 43.288 1000.79 43.272 1000.85 43.272ZM1007.06 46H1004.9V34.432H1007.06V46ZM1021.76 40.216C1021.76 41.064 1021.62 41.8507 1021.34 42.576C1021.06 43.296 1020.66 43.92 1020.15 44.448C1019.64 44.976 1019.02 45.3893 1018.3 45.688C1017.58 45.9813 1016.78 46.128 1015.91 46.128C1015.03 46.128 1014.23 45.9813 1013.51 45.688C1012.79 45.3893 1012.17 44.976 1011.65 44.448C1011.14 43.92 1010.74 43.296 1010.46 42.576C1010.18 41.8507 1010.04 41.064 1010.04 40.216C1010.04 39.368 1010.18 38.584 1010.46 37.864C1010.74 37.1387 1011.14 36.512 1011.65 35.984C1012.17 35.456 1012.79 35.0453 1013.51 34.752C1014.23 34.4533 1015.03 34.304 1015.91 34.304C1016.78 34.304 1017.58 34.4533 1018.3 34.752C1019.02 35.0507 1019.64 35.464 1020.15 35.992C1020.66 36.5147 1021.06 37.1387 1021.34 37.864C1021.62 38.584 1021.76 39.368 1021.76 40.216ZM1019.56 40.216C1019.56 39.5813 1019.47 39.0133 1019.3 38.512C1019.13 38.0053 1018.89 37.576 1018.58 37.224C1018.27 36.872 1017.88 36.6027 1017.43 36.416C1016.98 36.2293 1016.47 36.136 1015.91 36.136C1015.34 36.136 1014.83 36.2293 1014.38 36.416C1013.93 36.6027 1013.54 36.872 1013.22 37.224C1012.91 37.576 1012.66 38.0053 1012.49 38.512C1012.32 39.0133 1012.24 39.5813 1012.24 40.216C1012.24 40.8507 1012.32 41.4213 1012.49 41.928C1012.66 42.4293 1012.91 42.856 1013.22 43.208C1013.54 43.5547 1013.93 43.8213 1014.38 44.008C1014.83 44.1947 1015.34 44.288 1015.91 44.288C1016.47 44.288 1016.98 44.1947 1017.43 44.008C1017.88 43.8213 1018.27 43.5547 1018.58 43.208C1018.89 42.856 1019.13 42.4293 1019.3 41.928C1019.47 41.4213 1019.56 40.8507 1019.56 40.216ZM1019 31.672L1016.63 33.4C1016.57 33.4427 1016.51 33.4773 1016.46 33.504C1016.41 33.5307 1016.36 33.552 1016.31 33.568C1016.26 33.584 1016.21 33.5947 1016.15 33.6C1016.09 33.6053 1016.03 33.608 1015.96 33.608H1014.4L1015.97 31.992C1016.04 31.928 1016.09 31.8747 1016.15 31.832C1016.21 31.7893 1016.27 31.7573 1016.32 31.736C1016.38 31.7093 1016.45 31.6933 1016.52 31.688C1016.6 31.6773 1016.69 31.672 1016.8 31.672H1019ZM1025.59 34.432C1025.69 34.432 1025.77 34.4373 1025.83 34.448C1025.9 34.4533 1025.95 34.4693 1026 34.496C1026.05 34.5173 1026.1 34.552 1026.15 34.6C1026.2 34.6427 1026.25 34.7013 1026.31 34.776L1032.38 42.512C1032.36 42.3253 1032.35 42.144 1032.34 41.968C1032.33 41.7867 1032.33 41.6187 1032.33 41.464V34.432H1034.22V46H1033.11C1032.94 46 1032.8 45.9733 1032.69 45.92C1032.58 45.8667 1032.47 45.7707 1032.36 45.632L1026.31 37.928C1026.33 38.0987 1026.34 38.2693 1026.34 38.44C1026.36 38.6053 1026.36 38.7573 1026.36 38.896V46H1024.46V34.432H1025.59Z" fill="white"/>
<defs>
<clipPath id="clip0_1_750">
<rect width="40" height="40" fill="white" transform="translate(20 20)"/>
</clipPath>
<clipPath id="clip1_1_750">
<rect width="40" height="40" fill="white" transform="translate(406 20)"/>
</clipPath>
</defs>
</svg>
