<svg width="30" height="28" viewBox="0 0 30 28" fill="none" xmlns="http://www.w3.org/2000/svg">
<path d="M29.3667 1.03341C29.1731 0.876776 28.9468 0.76553 28.7045 0.707845C28.4622 0.650161 28.2101 0.647505 27.9667 0.700074L15 3.61674L2.03335 0.66674C1.78606 0.610889 1.52928 0.61219 1.28257 0.670542C1.03585 0.728894 0.805703 0.842759 0.609632 1.00347C0.413561 1.16419 0.256738 1.36751 0.151098 1.59798C0.0454582 1.82844 -0.00621371 2.07996 1.48537e-05 2.33341V22.6667C-0.0094012 23.052 0.11499 23.4286 0.352014 23.7325C0.589038 24.0364 0.924046 24.2487 1.30001 24.3334L14.6333 27.3334H15.3667L28.7 24.3334C29.076 24.2487 29.411 24.0364 29.648 23.7325C29.885 23.4286 30.0094 23.052 30 22.6667V2.33341C29.9989 2.08307 29.9413 1.8362 29.8317 1.61114C29.722 1.38608 29.5631 1.18862 29.3667 1.03341ZM3.33335 4.41674L13.3333 6.66674V23.5834L3.33335 21.3334V4.41674ZM26.6667 21.3334L16.6667 23.5834V6.66674L26.6667 4.41674V21.3334Z" fill="#D8D7CE"/>
</svg>
